PathFileType	4	(X/Y/Z)	W18_1_OpenSim.trc																																																																																																																						
DataRate	CameraRate	NumFrames	NumMarkers	Units	OrigDataRate	OrigDataStartFrame	OrigNumFrames																																																																																																																		
100	100	10	40	mm	100	1501	3000																																																																																																																		
Frame#	Time	R.ASIS			R.PSIS			S2			L.PSIS			L.ASIS			R.TH1			R.TH2			R.TH3			R.MKnee			R.Knee			R.SH1			R.SH2			R.SH3			R.SH4			R.Ankle			R.MAnkle			R.Heel			R.MT5			R.MT1			L.TH1			L.TH2			L.TH3			L.TH4			L.MKnee			L.Knee			L.SH1			L.SH2			L.SH3			L.Ankle			L.MAnkle			L.Heel			L.MT5			L.MT1			R.Acr			L.Acr			C7			T10			Clav			Sternum			R.Back		
		X1	Y1	Z1	X2	Y2	Z2	X3	Y3	Z3	X4	Y4	Z4	X5	Y5	Z5	X6	Y6	Z6	X7	Y7	Z7	X8	Y8	Z8	X9	Y9	Z9	X10	Y10	Z10	X11	Y11	Z11	X12	Y12	Z12	X13	Y13	Z13	X14	Y14	Z14	X15	Y15	Z15	X16	Y16	Z16	X17	Y17	Z17	X18	Y18	Z18	X19	Y19	Z19	X20	Y20	Z20	X21	Y21	Z21	X22	Y22	Z22	X23	Y23	Z23	X24	Y24	Z24	X25	Y25	Z25	X26	Y26	Z26	X27	Y27	Z27	X28	Y28	Z28	X29	Y29	Z29	X30	Y30	Z30	X31	Y31	Z31	X32	Y32	Z32	X33	Y33	Z33	X34	Y34	Z34	X35	Y35	Z35	X36	Y36	Z36	X37	Y37	Z37	X38	Y38	Z38	X39	Y39	Z39	X40	Y40	Z40
1501	15	911.7536	1023.5487	-425.6581	725.7406	1028.5369	-531.2797	720.6402	1026.1504	-576.9861	729.7878	1034.9982	-626.3174	913.7502	1036.9148	-718.2966	888.4648	690.101	-403.7113	807.2542	686.173	-393.5164	813.0964	576.0287	-399.2534	837.4003	449.9517	-515.8345	825.6934	463.4316	-398.8207	707.1641	348.2152	-391.4676	618.6482	279.2252	-407.2491	656.8122	414.8688	-387.1966	568.6191	342.7636	-392.1848	449.0535	238.7774	-396.0853	483.3849	214.6922	-487.0458	403.5036	291.1343	-454.3395	434.717	114.9567	-377.6468	457.5184	76.9066	-467.4958	993.3082	767.6142	-730.8134	1024.4783	664.2211	-716.3419	915.5927	738.3179	-744.6091	949.4729	636.0968	-724.4761	1038.1193	515.2745	-588.4069	1044.7585	518.572	-697.8901	1060.3413	382.9577	-711.728	979.2864	384.6047	-727.1908	978.8297	274.9688	-718.0554	1018.2576	80.9918	-708.1293	1049.7449	91.2802	-607.9831	954.4556	39.7883	-650.0588	1126.3787	32.3931	-722.7816	1168.4861	44.1977	-624.1803	887.3048	1436.828	-421.2719	837.5368	1419.5293	-743.1379	806.107	1469.4646	-577.8602	763.5451	1142.9369	-565.0276	943.0948	1372.291	-590.824	971.0538	1229.6984	-580.5233	735.4436	1376.3988	-479.2945
1502	15.01	911.1191	1025.2617	-426.0391	725.7593	1029.8943	-532.0856	720.6664	1027.7087	-577.8012	729.8008	1036.8215	-627.0898	913.6083	1039.4132	-719.7803	897.2557	692.5251	-405.1041	816.3186	685.7938	-395.0714	825.9297	575.9266	-400.5727	853.72	451.2304	-517.1556	842.1511	464.5352	-399.684	723.3276	350.6361	-392.585	633.8298	282.8604	-408.7889	673.8317	417.9586	-387.8178	584.6445	346.9775	-393.1114	463.8704	246.1199	-397.4291	497.9505	221.0654	-488.3725	418.3339	298.5869	-455.812	448.8342	122.5169	-378.3022	471.3778	82.6175	-467.3287	991.3016	767.7708	-732.3329	1021.0417	663.9763	-717.8024	913.1195	739.6163	-745.7383	945.4841	636.9672	-725.3474	1033.062	515.0942	-589.2141	1039.0762	517.9802	-698.9742	1050.8986	381.9263	-712.587	969.7409	385.6891	-727.3694	966.5182	276.0179	-718.2871	1000.8513	81.1641	-708.4054	1032.553	91.4645	-608.4158	936.7445	40.3013	-650.4189	1108.5215	31.9765	-723.3984	1150.8145	43.6655	-624.9871	885.7931	1438.7103	-421.5925	839.227	1422.0503	-743.9252	806.0901	1471.7764	-578.9508	763.5774	1145.1122	-566.4708	943.0458	1374.4479	-590.8666	970.6378	1231.7572	-580.4601	734.5145	1378.6033	-481.2612
1503	15.02	910.5812	1027.2966	-426.5213	725.7745	1031.8771	-532.8797	720.6683	1029.8373	-578.5994	729.7897	1039.1138	-627.8605	913.3937	1041.8776	-721.2275	905.7469	695.7859	-406.3105	825.1244	686.2811	-396.5409	838.4691	576.8378	-401.765	869.8874	453.5486	-518.418	858.3503	466.6434	-400.5521	739.7702	353.4557	-393.8181	649.825	286.2758	-410.4705	690.6681	421.079	-388.8081	601.0056	350.6356	-394.4558	479.7998	251.6426	-399.2359	513.8911	226.1645	-490.0592	433.1256	302.8613	-457.7957	466.6855	128.3466	-378.9558	489.6159	87.3185	-467.2618	988.5364	767.7227	-733.6354	1016.6758	663.5113	-719.0046	909.8527	740.8645	-746.6129	940.5749	637.747	-725.8815	1026.7351	514.723	-589.7723	1032.2112	517.1998	-699.8282	1040.3202	380.8488	-713.2675	959.0732	386.5658	-727.114	953.332	276.9348	-718.1625	983.2979	81.3657	-708.5065	1015.1772	91.6568	-608.6296	918.9743	40.7506	-650.6408	1090.5605	31.9022	-723.8389	1133.0168	43.486	-625.5969	884.01	1440.7645	-421.6957	840.6956	1424.7068	-744.5617	805.9336	1474.2482	-579.9194	763.5105	1147.4648	-567.8956	942.8685	1376.7954	-590.7299	970.0881	1234.0278	-580.2098	733.4006	1380.9238	-483.2261
1504	15.03	910.2344	1029.7268	-427.2138	725.7805	1034.4467	-533.6342	720.6454	1032.4976	-579.3517	729.7526	1041.8408	-628.6014	913.136	1044.3196	-722.5614	913.914	699.8362	-407.3185	833.656	687.5929	-397.8743	850.6779	578.7151	-402.7712	885.8555	456.8281	-519.5404	874.1923	469.6956	-401.3678	756.3696	356.6173	-395.0568	666.5239	289.3592	-412.1265	707.1777	424.1653	-390.2	617.5787	353.6304	-396.1776	496.7206	255.1988	-401.389	531.146	229.7272	-491.993	448.0706	303.992	-460.2307	487.692	132.3206	-379.5342	511.6601	90.7562	-467.1818	985.1127	767.5655	-734.7027	1011.5146	662.9302	-719.9642	905.9174	742.1291	-747.2724	934.9159	638.5049	-726.1655	1019.2908	514.2219	-590.1691	1024.309	516.3137	-700.5055	1028.864	379.7887	-713.8026	947.5586	387.2983	-726.6899	939.5237	277.769	-717.9076	965.6627	81.5813	-708.5092	997.6885	91.8481	-608.7053	901.1748	41.1699	-650.7659	1072.5501	32.0113	-724.1409	1115.156	43.4949	-626.0399	882.0139	1442.9811	-421.6201	841.9481	1427.4962	-745.0599	805.6686	1476.8624	-580.7752	763.3469	1149.9877	-569.2911	942.5892	1379.3283	-590.4406	969.4755	1236.5231	-579.7999	732.1532	1383.3555	-485.1693
1505	15.04	910.105	1032.5984	-428.1573	725.759	1037.4984	-534.3217	720.5837	1035.589	-580.031	729.6749	1044.9153	-629.2851	912.8433	1046.7402	-723.7115	921.7361	704.5975	-408.1006	841.8953	689.6606	-399.0408	862.5269	581.4762	-403.563	901.5673	460.9647	-520.4573	889.5975	473.5964	-402.0731	773.0529	360.0083	-396.2023	683.8569	291.9813	-413.6074	723.2924	427.0914	-391.9416	634.3036	355.8279	-398.1827	514.5283	256.7278	-403.7671	549.7183	231.5546	-494.0404	463.4942	302.1391	-463.0832	511.1606	134.4469	-379.9768	536.8462	92.7885	-466.947	981.1378	767.3647	-735.5596	1005.6836	662.3002	-720.7387	901.4376	743.4553	-747.7739	928.6359	639.293	-726.3112	1010.8934	513.6409	-590.5034	1015.5084	515.3928	-701.085	1016.7538	378.7947	-714.2483	935.4396	387.9362	-726.3264	925.3144	278.5585	-717.7064	947.9981	81.7981	-708.4794	980.1391	92.0427	-608.7258	883.3729	41.5859	-650.8323	1054.5322	32.1894	-724.3572	1097.2673	43.5894	-626.3596	879.8646	1445.3376	-421.4081	843.0073	1430.41	-745.4325	805.3265	1479.5914	-581.5293	763.0898	1152.6608	-570.6462	942.2338	1382.0251	-590.0247	968.8595	1239.2332	-579.2588	730.8232	1385.8876	-487.0667
1506	15.05	910.1471	1035.9004	-429.3196	725.6868	1040.8838	-534.9178	720.4642	1038.9706	-580.6133	729.5372	1048.2174	-629.8859	912.5105	1049.132	-724.6332	929.1865	709.963	-408.6241	849.8138	692.393	-400.0305	873.9797	585.0093	-404.1419	916.9514	465.8357	-521.1229	904.5006	478.223	-402.6157	789.7691	363.4828	-397.1852	701.7731	294.0244	-414.8068	738.9976	429.6981	-393.911	651.1578	357.1012	-400.3413	533.138	256.2489	-406.2594	569.6186	231.5548	-496.0713	479.7197	297.5394	-466.3174	536.442	134.8303	-380.2352	564.5337	93.3938	-466.4245	976.7091	767.158	-736.2529	999.2917	661.6614	-721.402	896.5248	744.8669	-748.1814	921.8292	640.1473	-726.4344	1001.7021	513.0121	-590.8652	1005.936	514.4905	-701.6483	1004.1522	377.8987	-714.669	922.8953	388.5175	-726.1703	910.8609	279.3312	-717.669	930.3432	82.0084	-708.4611	962.5679	92.2507	-608.7584	865.5922	42.0186	-650.8697	1036.5404	32.3628	-724.5356	1079.3645	43.7147	-626.5947	877.6169	1447.7996	-421.101	843.9094	1433.4291	-745.6912	804.9336	1482.3944	-582.1922	762.7449	1155.4498	-571.9479	941.8246	1384.8489	-589.5076	968.2819	1242.1248	-578.6169	729.4563	1388.496	-488.8953
1507	15.06	910.2648	1039.549	-430.6089	725.5422	1044.4341	-535.4023	720.2687	1042.4839	-581.0794	729.3192	1051.615	-630.3807	912.1252	1051.4808	-725.3193	936.2283	715.8016	-408.8618	857.3727	695.6769	-400.848	884.9852	589.1785	-404.5289	931.9306	471.3069	-521.5117	918.8392	483.4286	-402.9613	806.4691	366.8936	-397.9707	720.2213	295.407	-415.6697	754.3048	431.8326	-395.9583	668.1359	357.3609	-402.5236	552.5067	253.8397	-408.7649	590.8187	229.7553	-497.9778	496.9913	290.4643	-469.8544	563.0411	133.6318	-380.2736	594.1692	92.657	-465.5254	971.9055	766.9614	-736.8302	992.4317	661.0366	-722.022	891.2741	746.3667	-748.5551	914.5771	641.0872	-726.6327	991.8632	512.352	-591.3214	995.6998	513.6412	-702.262	991.1567	377.1155	-715.129	910.0308	389.0731	-726.2748	896.2418	280.1075	-717.8269	912.7216	82.2117	-708.4731	945.0039	92.4812	-608.8459	847.8481	42.4834	-650.8972	1018.5924	32.4917	-724.7131	1061.451	43.8456	-626.7725	875.3177	1450.3209	-420.7362	844.699	1436.5212	-745.8456	804.5093	1485.2189	-582.7714	762.3219	1158.306	-573.1799	941.3781	1387.7496	-588.9139	967.7695	1245.1415	-577.9067	728.0896	1391.1393	-490.6373
1508	15.07	910.352	1043.3951	-431.9003	725.3091	1047.9799	-535.7569	719.9822	1045.9713	-581.4128	729	1054.9769	-630.7485	911.6693	1053.7696	-725.8025	942.8185	721.9669	-408.8	864.5252	699.3807	-401.5059	895.4764	593.83	-404.7507	946.4334	477.2392	-521.6215	932.549	489.051	-403.1023	823.1036	370.1137	-398.5519	739.1466	296.0937	-416.1907	769.2333	433.375	-397.9495	685.243	356.563	-404.6222	572.6432	249.6133	-411.1816	613.2371	226.2814	-499.6772	515.4578	281.195	-473.5435	590.648	131.0336	-380.0682	625.3029	90.7388	-464.2253	966.7875	766.7753	-737.3273	985.1821	660.4379	-722.6446	885.7613	747.9396	-748.9425	906.9561	642.1157	-726.9689	981.5003	511.6705	-591.9055	984.8834	512.8628	-702.9625	977.8158	376.4461	-715.6794	896.887	389.6286	-726.614	881.4717	280.9033	-718.1495	895.137	82.4143	-708.5134	927.4651	92.7384	-609.0036	830.1415	42.9946	-650.9222	1000.6842	32.5631	-724.9187	1043.5337	43.9694	-626.9116	873.0077	1452.845	-420.345	845.4217	1439.6409	-745.9033	804.067	1488.0051	-583.2693	761.8355	1161.1685	-574.3254	940.9066	1390.6672	-588.2646	967.336	1248.2071	-577.1627	726.7504	1393.7626	-492.2812
1509	15.08	910.3228	1047.2473	-433.0704	724.9796	1051.3656	-535.9647	719.5952	1049.2894	-581.5986	728.5595	1058.1824	-630.9697	911.1193	1055.9762	-726.1461	948.9194	728.3058	-408.4427	871.2222	703.3613	-402.0153	905.3776	598.8003	-404.8309	960.3979	483.4945	-521.4768	945.566	494.9256	-403.0597	839.633	373.0406	-398.9397	758.497	296.0867	-416.4058	783.8029	434.2424	-399.7882	702.4944	354.7014	-406.5525	593.5986	243.7036	-413.3997	636.754	221.3204	-501.1037	535.1942	270.0147	-477.1681	619.11	127.213	-379.606	657.5781	87.8392	-462.5598	961.4026	766.5887	-737.7655	977.6066	659.8679	-723.2845	880.041	749.5566	-749.371	899.0332	643.2219	-727.4625	970.7133	510.9771	-592.6171	973.5479	512.1601	-703.749	964.1507	375.8821	-716.3428	883.4677	390.2044	-727.1132	866.532	281.7298	-718.5732	877.5726	82.628	-708.5673	909.9575	93.02	-609.2245	812.4551	43.5663	-650.9465	982.7954	32.5827	-725.171	1025.623	44.0769	-627.0253	870.7235	1455.305	-419.9503	846.118	1442.7327	-745.8698	803.6181	1490.6902	-583.6825	761.3031	1163.9678	-575.3701	940.4202	1393.5341	-587.5769	966.9786	1251.2328	-576.4205	725.4586	1396.305	-493.8209
1510	15.09	910.1268	1050.9027	-434.0297	724.5524	1054.4605	-536.011	719.1054	1052.3175	-581.6232	727.9814	1061.127	-631.0263	910.4476	1058.0703	-726.4258	954.5115	734.6634	-407.8127	877.4245	707.4707	-402.3805	914.6171	603.9249	-404.7904	973.7618	489.9385	-521.1287	957.8307	500.8947	-402.8776	856.0335	375.591	-399.1513	778.2307	295.4098	-416.3776	798.0344	434.3795	-401.4137	719.9169	351.7951	-408.2441	615.4475	236.2584	-415.3041	661.2413	215.0887	-502.1977	556.227	257.2081	-480.4803	648.3763	122.3338	-378.8824	690.7191	84.1659	-460.6029	955.7901	766.3822	-738.1517	969.7534	659.3209	-723.925	874.1489	751.1794	-749.845	890.8639	644.3826	-728.0905	959.5802	510.2811	-593.4285	961.7415	511.5286	-704.5899	950.1748	375.4092	-717.1074	869.771	390.8119	-727.6841	851.4028	282.5933	-719.03	860.0026	82.8653	-708.6171	892.4765	93.3205	-609.4878	794.7573	44.2102	-650.9729	964.9015	32.5657	-725.4735	1007.7257	44.1614	-627.1251	868.5007	1457.6294	-419.5663	846.8182	1445.7363	-745.7492	803.1724	1493.2124	-584.0069	760.7424	1166.6312	-576.3035	939.927	1396.2783	-586.8669	966.6732	1254.1263	-575.7163	724.2308	1398.7073	-495.2541
